<svg width="538" height="324" viewBox="0 0 538 324" fill="none" xmlns="http://www.w3.org/2000/svg">
<path d="M433 140C433 217.32 369.648 280 291.5 280C213.352 280 150 217.32 150 140C150 62.6801 213.352 0 291.5 0C369.648 0 433 62.6801 433 140Z" fill="#6D8289" fill-opacity="0.81"/>
<path d="M255 188C255 248.751 207.99 298 150 298C92.0101 298 45 248.751 45 188C45 127.249 92.0101 78 150 78C207.99 78 255 127.249 255 188Z" fill="#8CB0BB" fill-opacity="0.71"/>
<path d="M384 232C384 282.81 338.557 324 282.5 324C226.443 324 181 282.81 181 232C181 181.19 226.443 140 282.5 140C338.557 140 384 181.19 384 232Z" fill="#B4D9E9" fill-opacity="0.93"/>
<path d="M119 232C119 265.689 92.3609 293 59.5 293C26.6391 293 0 265.689 0 232C0 198.311 26.6391 171 59.5 171C92.3609 171 119 198.311 119 232Z" fill="#B4D9E9" fill-opacity="0.93"/>
<path d="M538 196C538 256.751 490.99 306 433 306C375.01 306 328 256.751 328 196C328 135.249 375.01 86 433 86C490.99 86 538 135.249 538 196Z" fill="#91ACB6" fill-opacity="0.71"/>
</svg>
