<svg width="257" height="215" viewBox="0 0 257 215" fill="none" xmlns="http://www.w3.org/2000/svg">
<path d="M98 5.15558C103 3.15573 146.5 33.6556 140 39.6556" stroke="black" stroke-width="10" stroke-linecap="round"/>
<path d="M28 40L50 71" stroke="black" stroke-width="10" stroke-linecap="round"/>
<path d="M61.9996 40.0002C92.4999 75.9999 69.8071 97.6514 49.9996 70.6933" stroke="black" stroke-width="10" stroke-linecap="round"/>
<path d="M141 40L63 40" stroke="black" stroke-width="10" stroke-linecap="round"/>
<path d="M98 5L37 5" stroke="black" stroke-width="10" stroke-linecap="round"/>
<path d="M28 198L28 40" stroke="black" stroke-width="10" stroke-linecap="round"/>
<path d="M141 198L141 40" stroke="black" stroke-width="10" stroke-linecap="round"/>
<path d="M163 205L10 205" stroke="black" stroke-width="20" stroke-linecap="round"/>
<path d="M37.0001 53C19.6156 32.2279 19.4336 21.6985 37.0001 5" stroke="black" stroke-width="10" stroke-linecap="round"/>
<rect x="84.2708" y="116" width="58.3457" height="31.9911" rx="10" transform="rotate(46.67 84.2708 116)" fill="black"/>
<path d="M120 57L189 129" stroke="black" stroke-width="20" stroke-linecap="round"/>
<path d="M129 121L167 160" stroke="black" stroke-width="15" stroke-linecap="round"/>
<path d="M62 153L72 164L82 175" stroke="black" stroke-width="15" stroke-linecap="round"/>
<path d="M61 164L66 170L71 176" stroke="black" stroke-width="15" stroke-linecap="round"/>
<rect x="114.374" y="70" width="81.7818" height="49.7501" rx="10" transform="rotate(46.67 114.374 70)" fill="black"/>
<path d="M157 54L189 88" stroke="#14E942" stroke-width="20" stroke-linecap="round"/>
<path d="M246.489 22L189 88.1813" stroke="#14E942" stroke-width="20" stroke-linecap="round"/>
</svg>
