<svg width="25" height="21" viewBox="0 0 25 21" fill="none" xmlns="http://www.w3.org/2000/svg">
<path d="M9.64625 1.39478C10.1609 1.20479 14.6384 4.10228 13.9694 4.67229" stroke="black" stroke-linecap="round"/>
<path d="M2.44104 4.70496L4.70553 7.64996" stroke="black" stroke-linecap="round"/>
<path d="M5.94067 4.70503C9.08011 8.125 6.74431 10.1819 4.70549 7.62087" stroke="black" stroke-linecap="round"/>
<path d="M14.0723 4.70496L6.04365 4.70496" stroke="black" stroke-linecap="round"/>
<path d="M9.64626 1.38L3.36743 1.38" stroke="black" stroke-linecap="round"/>
<path d="M2.44104 19.715L2.44104 4.70497" stroke="black" stroke-linecap="round"/>
<path d="M14.0723 19.715L14.0723 4.70497" stroke="black" stroke-linecap="round"/>
<path d="M16.7485 20L1 20" stroke="black" stroke-width="2" stroke-linecap="round"/>
<path d="M3.36744 5.94C1.57802 3.96665 1.55929 2.96636 3.36744 1.38" stroke="black" stroke-linecap="round"/>
<rect width="5.75682" height="1.95932" rx="0.97966" transform="matrix(0.701694 0.712478 -0.766108 0.642712 9.50105 10)" fill="black"/>
<path d="M12 6L18.9044 13.0105" stroke="black" stroke-width="2" stroke-linecap="round"/>
<path d="M12.7342 10.8799L16.5041 14.7078" stroke="black" stroke-width="0.5" stroke-linecap="round"/>
<path d="M8.02608 13L9.05539 14.045L10.0847 15.09" stroke="black" stroke-linecap="round"/>
<path d="M8 13.9709L8.54074 14.52L9.08148 15.069" stroke="black" stroke-linecap="round"/>
<rect width="8.0692" height="2.72688" rx="1.36344" transform="matrix(0.701694 0.712478 -0.766108 0.642712 11.0891 7)" fill="black"/>
<path d="M15 6.03998L18.2938 9.26998" stroke="#14E942" stroke-linecap="round"/>
<path d="M24.2113 3L18.2938 9.28722" stroke="#14E942" stroke-linecap="round"/>
</svg>
