<svg width="376" height="382" viewBox="0 0 376 382" fill="none" xmlns="http://www.w3.org/2000/svg">
<path d="M93 116.5C93 139.42 72.1812 158 46.5 158C20.8188 158 0 139.42 0 116.5C0 93.5802 20.8188 75 46.5 75C72.1812 75 93 93.5802 93 116.5Z" fill="#8C97F9"/>
<path d="M376 124.5C376 147.42 355.181 166 329.5 166C303.819 166 283 147.42 283 124.5C283 101.58 303.819 83 329.5 83C355.181 83 376 101.58 376 124.5Z" fill="#8C97F9"/>
<path d="M250 191.5C250 223.256 222.242 249 188 249C153.758 249 126 223.256 126 191.5C126 159.744 153.758 134 188 134C222.242 134 250 159.744 250 191.5Z" fill="white" fill-opacity="0.7"/>
<path d="M250 191.5C250 223.256 222.242 249 188 249C153.758 249 126 223.256 126 191.5C126 159.744 153.758 134 188 134C222.242 134 250 159.744 250 191.5Z" fill="white" fill-opacity="0.7"/>
<path d="M250 191.5C250 223.256 222.242 249 188 249C153.758 249 126 223.256 126 191.5C126 159.744 153.758 134 188 134C222.242 134 250 159.744 250 191.5Z" fill="white" fill-opacity="0.7"/>
<path d="M250 191.5C250 223.256 222.242 249 188 249C153.758 249 126 223.256 126 191.5C126 159.744 153.758 134 188 134C222.242 134 250 159.744 250 191.5Z" fill="#91ACB6" fill-opacity="0.86"/>
<path d="M250 191.5C250 223.256 222.242 249 188 249C153.758 249 126 223.256 126 191.5C126 159.744 153.758 134 188 134C222.242 134 250 159.744 250 191.5Z" fill="white" fill-opacity="0.7"/>
<path d="M217 191.5C217 205.031 204.24 216 188.5 216C172.76 216 160 205.031 160 191.5C160 177.969 172.76 167 188.5 167C204.24 167 217 177.969 217 191.5Z" fill="white" fill-opacity="0.7"/>
<path d="M217 191.5C217 205.031 204.24 216 188.5 216C172.76 216 160 205.031 160 191.5C160 177.969 172.76 167 188.5 167C204.24 167 217 177.969 217 191.5Z" fill="white" fill-opacity="0.7"/>
<path d="M217 191.5C217 205.031 204.24 216 188.5 216C172.76 216 160 205.031 160 191.5C160 177.969 172.76 167 188.5 167C204.24 167 217 177.969 217 191.5Z" fill="white" fill-opacity="0.7"/>
<path d="M217 191.5C217 205.031 204.24 216 188.5 216C172.76 216 160 205.031 160 191.5C160 177.969 172.76 167 188.5 167C204.24 167 217 177.969 217 191.5Z" fill="white" fill-opacity="0.7"/>
<path d="M217 191.5C217 205.031 204.24 216 188.5 216C172.76 216 160 205.031 160 191.5C160 177.969 172.76 167 188.5 167C204.24 167 217 177.969 217 191.5Z" fill="#3900FF" fill-opacity="0.3"/>
<path d="M368 277.5C368 300.42 347.181 319 321.5 319C295.819 319 275 300.42 275 277.5C275 254.58 295.819 236 321.5 236C347.181 236 368 254.58 368 277.5Z" fill="#8C97F9"/>
<path d="M101 274.5C101 297.42 80.1812 316 54.5 316C28.8188 316 8 297.42 8 274.5C8 251.58 28.8188 233 54.5 233C80.1812 233 101 251.58 101 274.5Z" fill="#8C97F9"/>
<path d="M235 340.5C235 363.42 214.181 382 188.5 382C162.819 382 142 363.42 142 340.5C142 317.58 162.819 299 188.5 299C214.181 299 235 317.58 235 340.5Z" fill="#8C97F9"/>
<path d="M297 157.5C297 171.031 284.24 182 268.5 182C252.76 182 240 171.031 240 157.5C240 143.969 252.76 133 268.5 133C284.24 133 297 143.969 297 157.5Z" fill="#00C0FC" fill-opacity="0.48"/>
<path d="M292 235.5C292 249.031 279.24 260 263.5 260C247.76 260 235 249.031 235 235.5C235 221.969 247.76 211 263.5 211C279.24 211 292 221.969 292 235.5Z" fill="#00C0FC" fill-opacity="0.48"/>
<path d="M217 274.5C217 288.031 204.24 299 188.5 299C172.76 299 160 288.031 160 274.5C160 260.969 172.76 250 188.5 250C204.24 250 217 260.969 217 274.5Z" fill="#00C0FC" fill-opacity="0.48"/>
<path d="M142 235.5C142 249.031 129.24 260 113.5 260C97.7599 260 85 249.031 85 235.5C85 221.969 97.7599 211 113.5 211C129.24 211 142 221.969 142 235.5Z" fill="#00C0FC" fill-opacity="0.48"/>
<path d="M137 149.5C137 163.031 124.24 174 108.5 174C92.7599 174 80 163.031 80 149.5C80 135.969 92.7599 125 108.5 125C124.24 125 137 135.969 137 149.5Z" fill="#00C0FC" fill-opacity="0.48"/>
<path d="M217 108.5C217 122.031 204.24 133 188.5 133C172.76 133 160 122.031 160 108.5C160 94.969 172.76 84 188.5 84C204.24 84 217 94.969 217 108.5Z" fill="white" fill-opacity="0.7"/>
<path d="M217 108.5C217 122.031 204.24 133 188.5 133C172.76 133 160 122.031 160 108.5C160 94.969 172.76 84 188.5 84C204.24 84 217 94.969 217 108.5Z" fill="white" fill-opacity="0.7"/>
<path d="M217 108.5C217 122.031 204.24 133 188.5 133C172.76 133 160 122.031 160 108.5C160 94.969 172.76 84 188.5 84C204.24 84 217 94.969 217 108.5Z" fill="white" fill-opacity="0.7"/>
<path d="M217 108.5C217 122.031 204.24 133 188.5 133C172.76 133 160 122.031 160 108.5C160 94.969 172.76 84 188.5 84C204.24 84 217 94.969 217 108.5Z" fill="white" fill-opacity="0.7"/>
<path d="M217 108.5C217 122.031 204.24 133 188.5 133C172.76 133 160 122.031 160 108.5C160 94.969 172.76 84 188.5 84C204.24 84 217 94.969 217 108.5Z" fill="#00C0FC" fill-opacity="0.48"/>
<path d="M235 41.5C235 64.4198 214.181 83 188.5 83C162.819 83 142 64.4198 142 41.5C142 18.5802 162.819 0 188.5 0C214.181 0 235 18.5802 235 41.5Z" fill="white" fill-opacity="0.7"/>
<path d="M235 41.5C235 64.4198 214.181 83 188.5 83C162.819 83 142 64.4198 142 41.5C142 18.5802 162.819 0 188.5 0C214.181 0 235 18.5802 235 41.5Z" fill="white" fill-opacity="0.7"/>
<path d="M235 41.5C235 64.4198 214.181 83 188.5 83C162.819 83 142 64.4198 142 41.5C142 18.5802 162.819 0 188.5 0C214.181 0 235 18.5802 235 41.5Z" fill="white" fill-opacity="0.7"/>
<path d="M235 41.5C235 64.4198 214.181 83 188.5 83C162.819 83 142 64.4198 142 41.5C142 18.5802 162.819 0 188.5 0C214.181 0 235 18.5802 235 41.5Z" fill="white" fill-opacity="0.7"/>
<path d="M235 41.5C235 64.4198 214.181 83 188.5 83C162.819 83 142 64.4198 142 41.5C142 18.5802 162.819 0 188.5 0C214.181 0 235 18.5802 235 41.5Z" fill="#8C97F9"/>
</svg>
