<svg width="370" height="369" viewBox="0 0 370 369" fill="none" xmlns="http://www.w3.org/2000/svg">
<path d="M370 184.5C370 286.397 287.173 369 185 369C82.8273 369 0 286.397 0 184.5C0 82.6035 82.8273 0 185 0C287.173 0 370 82.6035 370 184.5Z" fill="#FFD700" fill-opacity="0.15"/>
<path d="M329 185C329 265.081 264.753 330 185.5 330C106.247 330 42 265.081 42 185C42 104.919 106.247 40 185.5 40C264.753 40 329 104.919 329 185Z" fill="#FFD700" fill-opacity="0.15"/>
<path d="M290 185C290 245.751 242.99 295 185 295C127.01 295 80 245.751 80 185C80 124.249 127.01 75 185 75C242.99 75 290 124.249 290 185Z" fill="#FFD700" fill-opacity="0.15"/>
</svg>
